Coordinates
version=1
nRows=14
nColumns=63
inDegrees=yes

Units are S.I. units (second, meters, Newtons, ...)
If the header above contains a line with 'inDegrees', this indicates whether rotational values are in degrees (yes) or radians (no).

endheader
time	pelvis_tilt	pelvis_list	pelvis_rotation	pelvis_tx	pelvis_ty	pelvis_tz	hip_flexion_r	hip_adduction_r	hip_rotation_r	knee_angle_r	knee_angle_r_beta	ankle_angle_r	subtalar_angle_r	mtp_angle_r	hip_flexion_l	hip_adduction_l	hip_rotation_l	knee_angle_l	knee_angle_l_beta	ankle_angle_l	subtalar_angle_l	mtp_angle_l	L5_S1_Flex_Ext	L5_S1_Lat_Bending	L5_S1_axial_rotation	L4_L5_Flex_Ext	L4_L5_Lat_Bending	L4_L5_axial_rotation	L3_L4_Flex_Ext	L3_L4_Lat_Bending	L3_L4_axial_rotation	L2_L3_Flex_Ext	L2_L3_Lat_Bending	L2_L3_axial_rotation	L1_L2_Flex_Ext	L1_L2_Lat_Bending	L1_L2_axial_rotation	L1_T12_Flex_Ext	L1_T12_Lat_Bending	L1_T12_axial_rotation	Abs_r3	Abs_r2	Abs_r1	Abs_t1	Abs_t2	neck_flexion	neck_bending	neck_rotation	arm_flex_r	arm_add_r	arm_rot_r	elbow_flex_r	pro_sup_r	wrist_flex_r	wrist_dev_r	arm_flex_l	arm_add_l	arm_rot_l	elbow_flex_l	pro_sup_l	wrist_flex_l	wrist_dev_l
6.101695	-22.147270	-48.224710	75.186137	0.294682	0.652388	0.971935	74.654380	-9.255713	7.507223	32.407316	0.565614	43.469313	15.322711	0.000000	55.591049	7.670745	-10.681402	4.469059	0.078000	34.221335	11.791462	0.000000	-0.485568	-2.485299	4.248092	-0.901749	-3.305448	4.513597	-0.797740	-6.042756	4.513597	-0.554956	-6.042756	3.717080	-0.450899	-5.068022	3.451574	-0.277454	-3.849728	3.186069	-3.468365	-28.114199	23.626611	0.000000	0.000000	23.099903	0.933376	-38.586205	58.980715	-50.828882	35.659194	64.244186	89.317371	-16.251744	-6.568799	-79.881661	-37.497393	-60.314232	149.680825	89.656491	69.722219	34.736349
6.118644	-22.198973	-48.338342	75.008465	0.295297	0.652824	0.971313	74.558547	-9.176166	7.386993	32.050457	0.559386	43.562454	15.800307	0.000000	55.835512	7.462161	-11.465965	4.764767	0.083161	34.661948	12.319787	0.000000	-0.470477	-2.502489	4.309669	-0.873723	-3.328310	4.579023	-0.772947	-6.084551	4.579023	-0.537708	-6.084551	3.770960	-0.436885	-5.103075	3.501606	-0.268831	-3.876355	3.232251	-3.360570	-28.308651	23.969084	0.000000	0.000000	23.475033	0.966921	-39.111510	58.095446	-51.155373	34.356782	64.913734	89.320791	-15.127318	-5.676544	-79.819168	-37.861337	-60.323660	149.672491	89.660447	69.722112	34.738548
6.135593	-22.234498	-48.468629	74.924932	0.295816	0.653251	0.970828	74.516215	-9.154352	7.273082	31.779741	0.554661	43.669389	16.175477	0.000000	56.169131	7.288268	-12.298191	5.145000	0.089797	35.181240	13.017472	0.000000	-0.457014	-2.516934	4.360009	-0.848721	-3.347523	4.632510	-0.750829	-6.119674	4.632510	-0.522322	-6.119674	3.815008	-0.424384	-5.132533	3.542508	-0.261138	-3.898731	3.270007	-3.264408	-28.472066	24.249065	0.000000	0.000000	23.879199	1.023869	-39.603481	57.231262	-51.463419	33.056064	65.523655	89.322524	-14.145841	-4.824253	-79.704112	-38.263606	-60.317333	149.667285	89.665118	69.722455	34.741395
6.152542	-22.289387	-48.599452	74.885222	0.296213	0.653604	0.970488	74.540230	-9.186244	7.180397	31.623131	0.551928	43.790183	16.480040	0.000000	56.597228	7.147694	-13.183736	5.649231	0.098598	35.777772	13.822461	0.000000	-0.443426	-2.529868	4.394759	-0.823487	-3.364725	4.669432	-0.728505	-6.151122	4.669432	-0.506792	-6.151122	3.845414	-0.411766	-5.158908	3.570742	-0.253374	-3.918766	3.296070	-3.167351	-28.618378	24.442333	0.000000	0.000000	24.208116	1.100341	-39.987869	56.484589	-51.689668	31.866431	66.013918	89.324399	-13.218492	-3.991629	-79.586511	-38.610943	-60.344300	149.666846	89.668479	69.723822	34.743743
6.169492	-22.356590	-48.723587	74.875544	0.296528	0.653902	0.970304	74.613219	-9.250569	7.113183	31.556891	0.550772	43.907792	16.723616	0.000000	57.079660	7.036013	-13.974766	6.218556	0.108534	36.374220	14.575974	0.000000	-0.431061	-2.541511	4.417806	-0.800524	-3.380210	4.693919	-0.708191	-6.179430	4.693919	-0.492660	-6.179430	3.865581	-0.400284	-5.182649	3.589468	-0.246309	-3.936800	3.313355	-3.079029	-28.750080	24.570514	0.000000	0.000000	24.470650	1.245930	-40.259160	55.798832	-51.815037	30.660419	66.401936	89.328881	-12.293383	-3.138693	-79.467350	-38.910332	-60.411665	149.671705	89.669921	69.725966	34.745168
6.186441	-22.428253	-48.841342	74.920041	0.296710	0.654095	0.970297	74.754188	-9.358942	7.081280	31.620128	0.551875	44.035344	16.889012	0.000000	57.628790	6.961852	-14.712576	6.886507	0.120192	36.981500	15.330693	0.000000	-0.419069	-2.550741	4.424802	-0.778254	-3.392485	4.701353	-0.688489	-6.201871	4.701353	-0.478954	-6.201871	3.871702	-0.389148	-5.201471	3.595152	-0.239456	-3.951098	3.318602	-2.993371	-28.854490	24.609423	0.000000	0.000000	24.611693	1.457156	-40.407886	55.251348	-51.858493	29.608013	66.648983	89.333789	-11.463796	-2.360382	-79.384562	-39.180246	-60.510044	149.681739	89.668365	69.728356	34.745213
6.203390	-22.525606	-48.950265	75.011801	0.296713	0.654156	0.970480	74.985185	-9.523025	7.104545	31.839700	0.555708	44.166481	16.971006	0.000000	58.228457	6.948065	-15.394251	7.617711	0.132954	37.576505	16.073244	0.000000	-0.408248	-2.559395	4.413799	-0.758158	-3.403995	4.689662	-0.670711	-6.222912	4.689662	-0.466587	-6.222912	3.862074	-0.379099	-5.219118	3.586212	-0.233273	-3.964502	3.310350	-2.916077	-28.952385	24.548228	0.000000	0.000000	24.640272	1.754962	-40.437926	54.868285	-51.849488	28.781333	66.764793	89.335410	-10.762531	-1.691951	-79.341620	-39.399656	-60.638916	149.696638	89.664795	69.730865	34.743883
6.220339	-22.533328	-49.049143	75.247444	0.296517	0.654121	0.970892	75.256690	-9.728905	7.122369	32.189526	0.561813	44.280436	16.971586	0.000000	58.859833	6.966083	-15.941510	8.420563	0.146967	38.145607	16.764926	0.000000	-0.399407	-2.558341	4.384684	-0.741738	-3.402594	4.658726	-0.656185	-6.220351	4.658726	-0.456482	-6.220351	3.836598	-0.370889	-5.216970	3.562555	-0.228221	-3.962871	3.288513	-2.852921	-28.940470	24.386295	0.000000	0.000000	24.532111	2.130122	-40.330141	54.708154	-51.819436	28.324157	66.699314	89.337652	-10.355349	-1.311907	-79.261134	-39.561893	-60.711869	149.715270	89.661189	69.733758	34.741747
6.237288	-22.539267	-49.105444	75.494057	0.296244	0.654014	0.971515	75.556528	-9.940188	7.165074	32.627560	0.569458	44.364911	16.976932	0.000000	59.485726	6.998882	-16.394978	9.259518	0.161609	38.689928	17.326444	0.000000	-0.396175	-2.555606	4.345495	-0.735736	-3.398956	4.617089	-0.650876	-6.213700	4.617089	-0.452788	-6.213700	3.802308	-0.367888	-5.211392	3.530715	-0.226374	-3.958634	3.259121	-2.829837	-28.909526	24.168340	0.000000	0.000000	24.315720	2.582620	-40.082798	54.799435	-51.750068	28.197158	66.477050	89.336557	-9.913677	-1.020623	-79.136649	-39.623757	-60.780739	149.736606	89.653888	69.737308	34.738166
6.254237	-22.566877	-49.143968	75.775999	0.295828	0.653756	0.972302	75.935419	-10.199990	7.211586	33.208043	0.579590	44.446178	16.997189	0.000000	60.103431	7.091717	-16.719103	10.086686	0.176046	39.180627	17.728943	0.000000	-0.396158	-2.552838	4.296238	-0.735706	-3.395274	4.564753	-0.650849	-6.206970	4.564753	-0.452769	-6.206970	3.759208	-0.367873	-5.205747	3.490693	-0.226365	-3.954346	3.222178	-2.829719	-28.878211	23.894386	0.000000	0.000000	24.002164	3.078457	-39.753947	55.007782	-51.700113	28.185110	66.233202	89.332986	-9.218159	-0.607866	-78.984024	-39.656617	-60.850131	149.758918	89.642946	69.741245	34.733032
6.271186	-22.629337	-49.158528	76.047510	0.295371	0.653352	0.973218	76.370602	-10.471273	7.298856	33.894273	0.591567	44.518050	17.008805	0.000000	60.697514	7.222063	-16.946416	10.899535	0.190233	39.621114	17.972978	0.000000	-0.400072	-2.552518	4.240587	-0.742973	-3.394848	4.505624	-0.657278	-6.206191	4.505624	-0.457242	-6.206191	3.710514	-0.371507	-5.205094	3.445477	-0.228601	-3.953850	3.180440	-2.857672	-28.874590	23.584872	0.000000	0.000000	23.609399	3.583188	-39.396671	55.367440	-51.659189	28.385555	65.926661	89.326971	-8.529464	-0.255663	-78.836749	-39.643434	-60.944619	149.780682	89.628067	69.745351	34.726240
6.288136	-22.765775	-49.167973	76.286969	0.294924	0.652787	0.974200	76.876622	-10.765203	7.434261	34.668508	0.605080	44.596212	17.022336	0.000000	61.249455	7.413957	-17.145947	11.621076	0.202826	39.990984	18.155077	0.000000	-0.406178	-2.558759	4.176871	-0.754314	-3.403149	4.437925	-0.667310	-6.221367	4.437925	-0.464221	-6.221367	3.654762	-0.377177	-5.217821	3.393708	-0.232090	-3.963518	3.132653	-2.901290	-28.945193	23.230503	0.000000	0.000000	23.181419	4.081731	-39.060858	55.770425	-51.596070	28.548488	65.646775	89.320268	-7.601853	0.312474	-78.759885	-39.603909	-61.105242	149.800159	89.610067	69.749128	34.718055
6.305085	-23.015251	-49.169106	76.437983	0.294529	0.652061	0.975213	77.451461	-11.065684	7.639820	35.507342	0.619720	44.688885	17.032182	0.000000	61.735588	7.669597	-17.252780	12.193812	0.212822	40.279270	18.169200	0.000000	-0.412489	-2.574386	4.101369	-0.766033	-3.423933	4.357705	-0.677678	-6.259361	4.357705	-0.471434	-6.259361	3.588698	-0.383037	-5.249687	3.332362	-0.235696	-3.987723	3.076027	-2.946368	-29.121964	22.810584	0.000000	0.000000	22.740740	4.565960	-38.698859	56.312401	-51.473407	28.892684	65.307904	89.314038	-6.745985	0.822514	-78.824645	-39.504907	-61.343286	149.816257	89.590369	69.752121	34.708981
6.322034	-23.350469	-49.193518	76.491194	0.294267	0.651191	0.976234	78.074450	-11.344132	7.881773	36.340255	0.634257	44.775858	17.060862	0.000000	62.190920	7.939060	-17.454209	12.653163	0.220839	40.526186	18.259923	0.000000	-0.418538	-2.598899	4.028716	-0.777267	-3.456535	4.280511	-0.687616	-6.318962	4.280511	-0.478347	-6.318962	3.525127	-0.388655	-5.299674	3.273332	-0.239153	-4.025694	3.021537	-2.989577	-29.399260	22.406511	0.000000	0.000000	22.338652	4.984198	-38.476896	56.767815	-51.333879	29.007734	65.080824	89.308760	-5.629244	1.620939	-79.019316	-39.431787	-61.630018	149.831464	89.571300	69.754187	34.699921
